<svg id="Capa_1" enable-background="new 0 0 512.015 512.015" height="512" viewBox="0 0 512.015 512.015" width="512" xmlns="http://www.w3.org/2000/svg"><g><g><path d="m221.763 314.04c-2.455 0-4.832-1.173-6.313-3.271l-17.65-24.993c-2.462-3.486-1.632-8.307 1.854-10.768 3.434-2.427 8.16-1.657 10.654 1.697l-.5-4.038c-.524-4.236 2.484-8.094 6.719-8.618 4.243-.518 8.093 2.483 8.618 6.719l4.284 34.595c.436 3.516-1.577 6.878-4.881 8.156-.91.352-1.853.521-2.785.521z" fill="#dd6938"/></g><path d="m470.031 399.371h-59.633c-18.106 5.854-31.204 22.842-31.204 42.897v61.571c0 4.511 3.657 8.168 8.168 8.168h105.706c4.511 0 8.168-3.657 8.168-8.168v-61.571c-.001-20.054-13.1-37.042-31.205-42.897z" fill="#ffe07d"/><path d="m470.031 399.371h-19.979c18.106 5.855 31.204 22.842 31.204 42.897v69.739h11.812c4.511 0 8.168-3.657 8.168-8.168v-61.572c-.001-20.054-13.1-37.041-31.205-42.896z" fill="#ffd064"/><path d="m101.618 399.371h-59.633c-18.106 5.854-31.204 22.842-31.204 42.897v61.571c0 4.511 3.657 8.168 8.168 8.168h105.706c4.511 0 8.168-3.657 8.168-8.168v-61.571c-.001-20.054-13.1-37.042-31.205-42.897z" fill="#b3e59f"/><path d="m101.618 399.371h-19.98c18.106 5.855 31.204 22.842 31.204 42.897v69.739h11.812c4.511 0 8.168-3.657 8.168-8.168v-61.572c0-20.054-13.099-37.041-31.204-42.896z" fill="#95d6a4"/><path d="m300.731 391.613h-89.446c-9.001 0-16.298-7.297-16.298-16.298v-42.578c0-33.701 27.32-61.021 61.021-61.021 33.701 0 61.021 27.32 61.021 61.021v42.578c0 9.001-7.297 16.298-16.298 16.298z" fill="#e27d47"/><path d="m256.008 271.717c-3.576 0-7.073.325-10.48.915 28.704 4.971 50.541 29.98 50.541 60.106v42.577c0 9.001-7.297 16.298-16.298 16.298h20.96c9.001 0 16.298-7.297 16.298-16.298v-42.577c0-33.701-27.32-61.021-61.021-61.021z" fill="#dd6938"/><path d="m88.352 271.717h-33.101c-23.62 0-42.852 22.509-43.044 50.445-.169 24.566-2.813 49.222-11.61 64.563-.145.253-.171.557-.07.831s.318.488.592.587c41.684 14.972 99.681 14.972 141.364 0 .274-.098.491-.313.591-.587.101-.273.076-.578-.069-.831-8.797-15.342-11.441-39.997-11.61-64.563-.191-27.936-19.424-50.445-43.043-50.445z" fill="#365e7d"/><path d="m110.556 328.891c.147 24.18 2.163 48.432 8.452 65.785 8.214-1.712 16.102-3.886 23.476-6.534.274-.099.491-.314.592-.587.101-.274.075-.578-.07-.831-8.796-15.342-11.44-39.997-11.609-64.563-.192-27.936-19.425-50.445-43.044-50.445h-20.84c23.619.001 42.851 25.512 43.043 57.175z" fill="#2b4d66"/><path d="m71.801 438.309c-7.198 0-13.033-5.835-13.033-13.033v-25.269h26.066v25.269c0 7.198-5.835 13.033-13.033 13.033z" fill="#ffcbbe"/><path d="m113.922 369.622c0 23.263-18.858 42.121-42.121 42.121-23.263 0-42.121-18.858-42.121-42.121v-34.936c0-1.145.973-2.039 2.115-1.96 19.393 1.347 40.675-.958 51.67-8.618.73-.509 1.708-.463 2.384.116 6.641 5.691 14.287 9.565 25.925 8.573 1.152-.098 2.148.798 2.148 1.954z" fill="#ffddce"/><path d="m111.774 332.797c-6.727.574-12.115-.486-16.752-2.575v39.399c0 20.012-13.961 36.752-32.671 41.043 3.039.697 6.199 1.078 9.45 1.078 23.263 0 42.121-18.858 42.121-42.121v-34.87c0-1.156-.995-2.052-2.148-1.954z" fill="#ffcbbe"/><path d="m285.824 399.371h-59.633c-18.106 5.854-31.204 22.842-31.204 42.897v61.571c0 4.511 3.657 8.168 8.168 8.168h105.706c4.511 0 8.168-3.657 8.168-8.168v-61.571c0-20.054-13.099-37.042-31.205-42.897z" fill="#bed8fb"/><path d="m285.824 399.371h-19.979c18.106 5.855 31.204 22.842 31.204 42.897v69.739h11.812c4.511 0 8.168-3.657 8.168-8.168v-61.572c0-20.054-13.099-37.041-31.205-42.896z" fill="#9dc6fb"/><path d="m256.008 438.309c-7.198 0-13.033-5.835-13.033-13.033v-25.269h26.066v25.269c0 7.198-5.835 13.033-13.033 13.033z" fill="#ffcbbe"/><path d="m256.008 411.742c-23.263 0-42.121-18.858-42.121-42.121v-34.936c0-1.145.973-2.039 2.115-1.96 19.393 1.347 40.675-.958 51.67-8.618.73-.509 1.708-.463 2.384.116 6.641 5.691 14.287 9.565 25.925 8.573 1.152-.098 2.148.798 2.148 1.954v34.87c0 23.264-18.859 42.122-42.121 42.122z" fill="#ffddce"/><path d="m295.981 332.797c-6.727.574-12.115-.486-16.752-2.575v39.399c0 20.012-13.961 36.752-32.671 41.043 3.039.697 6.199 1.078 9.45 1.078 23.263 0 42.121-18.858 42.121-42.121v-34.87c0-1.156-.996-2.052-2.148-1.954z" fill="#ffcbbe"/><path d="m456.765 271.717h-33.101c-23.62 0-42.852 22.509-43.044 50.445-.169 24.566-2.813 49.222-11.61 64.563-.145.253-.171.557-.07.831s.318.488.592.587c41.684 14.972 99.681 14.972 141.364 0 .274-.098.491-.313.591-.587.101-.273.076-.578-.069-.831-8.797-15.342-11.441-39.997-11.61-64.563-.191-27.936-19.424-50.445-43.043-50.445z" fill="#365e7d"/><path d="m478.969 328.891c.147 24.18 2.163 48.432 8.452 65.785 8.214-1.712 16.102-3.886 23.476-6.534.274-.099.491-.314.592-.587s.075-.578-.07-.831c-8.796-15.342-11.44-39.997-11.609-64.563-.192-27.936-19.424-50.445-43.044-50.445h-20.84c23.619.001 42.851 25.512 43.043 57.175z" fill="#2b4d66"/><path d="m440.214 438.309c-7.198 0-13.033-5.835-13.033-13.033v-25.269h26.066v25.269c0 7.198-5.835 13.033-13.033 13.033z" fill="#ffcbbe"/><path d="m440.214 411.742c-23.263 0-42.121-18.858-42.121-42.121v-34.936c0-1.145.973-2.039 2.115-1.96 19.393 1.347 40.675-.958 51.67-8.618.73-.509 1.708-.463 2.384.116 6.641 5.691 14.287 9.565 25.925 8.573 1.152-.098 2.148.798 2.148 1.954v34.87c0 23.264-18.858 42.122-42.121 42.122z" fill="#ffddce"/><path d="m480.187 332.797c-6.727.574-12.115-.486-16.752-2.575v39.399c0 20.012-13.961 36.752-32.671 41.043 3.039.697 6.199 1.078 9.45 1.078 23.263 0 42.121-18.858 42.121-42.121v-34.87c0-1.156-.995-2.052-2.148-1.954z" fill="#ffcbbe"/><path d="m491.733.008h-471.451c-11.201 0-20.282 9.08-20.282 20.282v162.866c0 11.201 9.08 20.282 20.282 20.282h19.08c2.491 0 4.827 1.208 6.268 3.24l19.904 28.078c3.062 4.32 9.473 4.32 12.535 0l19.904-28.078c1.44-2.032 3.777-3.24 6.268-3.24h119.328c2.491 0 4.827 1.208 6.268 3.24l19.904 28.078c3.062 4.32 9.473 4.32 12.535 0l19.904-28.078c1.44-2.032 3.777-3.24 6.268-3.24h119.328c2.491 0 4.827 1.208 6.268 3.24l19.904 28.078c3.062 4.32 9.473 4.32 12.535 0l19.904-28.078c1.44-2.032 3.777-3.24 6.268-3.24h19.08c11.201 0 20.282-9.081 20.282-20.282v-162.866c-.002-11.202-9.082-20.282-20.284-20.282z" fill="#bed8fb"/><g><path d="m491.733.008h-28.331c11.201 0 20.282 9.081 20.282 20.282v172.137c0 4.062-1.207 7.838-3.264 11.01h11.312c11.201 0 20.282-9.081 20.282-20.282v-162.865c.001-11.202-9.079-20.282-20.281-20.282z" fill="#9dc6fb"/></g><g><path d="m410.411 79.858c11.896 0 21.541 9.644 21.541 21.541 0 3.266-.748 6.35-2.049 9.123l30.408 28.83c8.027-10.537 12.801-23.685 12.801-37.953 0-34.629-28.072-62.701-62.701-62.701-1.1 0-2.194.03-3.28.086z" fill="#b3e59f"/><path d="m410.411 38.698c-1.1 0-2.194.03-3.28.086l.141 1.766c21.84 12.957 36.488 36.761 36.488 63.997 0 5.922-.713 11.675-2.021 17.197l18.572 17.608c8.027-10.537 12.801-23.685 12.801-37.953 0-34.629-28.072-62.701-62.701-62.701z" fill="#95d6a4"/><path d="m388.871 101.399c0-11.896 9.644-21.541 21.541-21.541l-3.28-41.075c-33.104 1.706-59.421 29.087-59.421 62.615 0 20.562 9.898 38.812 25.189 50.247l22.757-34.583c-4.17-3.927-6.786-9.483-6.786-15.663z" fill="#dd636e"/><path d="m429.903 110.522c-3.437 7.329-10.861 12.417-19.492 12.417-5.717 0-10.899-2.243-14.756-5.877l-22.757 34.583c10.461 7.822 23.446 12.454 37.512 12.454 20.361 0 38.446-9.712 49.9-24.748z" fill="#ffe07d"/><path d="m441.74 121.745c-4.058 17.136-14.028 31.982-27.658 42.246 18.854-1.09 35.469-10.513 46.23-24.639z" fill="#ffd064"/></g><path d="m78.218 136.089h-31.302c-2.123 0-3.843-1.721-3.843-3.843v-43.156c0-2.123 1.721-3.843 3.843-3.843h31.302c2.123 0 3.843 1.721 3.843 3.843v43.156c0 2.122-1.72 3.843-3.843 3.843z" fill="#ffe07d"/><path d="m78.218 85.247h-16.23c2.123 0 3.843 1.721 3.843 3.843v43.156c0 2.123-1.721 3.843-3.843 3.843h16.23c2.123 0 3.843-1.721 3.843-3.843v-43.156c0-2.123-1.72-3.843-3.843-3.843z" fill="#ffd064"/><path d="m146.726 136.089h-31.302c-2.123 0-3.843-1.721-3.843-3.843v-53.458c0-2.123 1.721-3.843 3.843-3.843h31.302c2.123 0 3.843 1.721 3.843 3.843v53.458c.001 2.122-1.72 3.843-3.843 3.843z" fill="#b3e59f"/><path d="m146.726 74.945h-14.942c2.123 0 3.843 1.721 3.843 3.843v53.458c0 2.123-1.721 3.843-3.843 3.843h14.942c2.123 0 3.843-1.721 3.843-3.843v-53.458c.001-2.123-1.72-3.843-3.843-3.843z" fill="#95d6a4"/><path d="m215.235 136.089h-31.302c-2.123 0-3.843-1.721-3.843-3.843v-74.062c0-2.123 1.721-3.843 3.843-3.843h31.302c2.123 0 3.843 1.721 3.843 3.843v74.062c0 2.122-1.721 3.843-3.843 3.843z" fill="#dd636e"/><path d="m215.235 54.34h-15.851c2.123 0 3.843 1.721 3.843 3.843v74.062c0 2.123-1.721 3.843-3.843 3.843h15.851c2.123 0 3.843-1.721 3.843-3.843v-74.061c0-2.123-1.721-3.844-3.843-3.844z" fill="#da4a54"/><g><path d="m301.724 75.46h-44.361c-4.268 0-7.727-3.459-7.727-7.727s3.459-7.727 7.727-7.727h44.361c4.268 0 7.727 3.459 7.727 7.727s-3.459 7.727-7.727 7.727z" fill="#2b4d66"/></g><g><path d="m301.724 102.942h-44.361c-4.268 0-7.727-3.459-7.727-7.727s3.459-7.727 7.727-7.727h44.361c4.268 0 7.727 3.459 7.727 7.727s-3.459 7.727-7.727 7.727z" fill="#2b4d66"/></g><g><path d="m301.724 130.423h-44.361c-4.268 0-7.727-3.459-7.727-7.727s3.459-7.727 7.727-7.727h44.361c4.268 0 7.727 3.459 7.727 7.727 0 4.269-3.459 7.727-7.727 7.727z" fill="#2b4d66"/></g></g></svg>